<svg xmlns="http://www.w3.org/2000/svg" viewBox="0 0 500 500"><path d="M409 255.09c-88.41-51-231.28-51-319.12 0S2.55 388.9 91 439.94s231.28 51.05 319.12 0 87.33-133.8-1.12-184.85z" fill="#f5f5f5"/><path d="M60.13 340.16c-6.2-3.58-16.23-3.58-22.39 0s-6.14 9.39.07 13 16.23 3.58 22.4 0 6.13-9.41-.08-13zm392.6-3.5c-6.54-3.77-17.11-3.77-23.6 0s-6.47 9.9.07 13.67 17.11 3.78 23.61 0 6.46-9.89-.08-13.67zm-8.85 24.78L347 305.6l-85.86 49.62 20.11 11.59c-10.9.84-21.42 3.67-29.77 8.53-20.19 11.73-20.08 30.75.24 42.48s53.15 11.73 73.34 0c8.38-4.87 13.25-11 14.64-17.33l18.3 10.57zM311.16 257.48L59.98 404.15 49.34 398l251.17-146.67 10.65 6.15z" fill="#e0e0e0"/><path d="M64 319.55L49 320l-15-.44c-.7 10.13 1.28 20.44 4 25.52a6.89 6.89 0 003 3c4.43 2.56 11.59 2.56 16 0a6.68 6.68 0 003-3.08c2.68-5.07 4.64-15.36 4-25.45z" fill="#fff"/><path d="M59.56 313.4c5.88 3.39 5.92 8.9.07 12.3s-15.36 3.4-21.25 0-5.91-8.91-.07-12.3 15.36-3.4 21.25 0z" fill="#ebebeb"/><path d="M57.23 314.75c4.59 2.65 4.62 6.95.06 9.6s-12 2.65-16.58 0-4.62-7-.05-9.6 11.98-2.65 16.57 0z" fill="#e0e0e0"/><path d="M57.23 314.75c4.59 2.65 4.62 6.95.06 9.6s-12 2.65-16.58 0-4.62-7-.05-9.6 11.98-2.65 16.57 0z" opacity=".15"/><path d="M41.31 288.81c-2.45-3-5.28-5.76-7.52-8.95-1.53-2.18-2.81-4.84-2.17-7.42a6.64 6.64 0 015.26-4.63 10.07 10.07 0 017.06 1.57 21.65 21.65 0 015.34 5.08 53 53 0 0111.16 37.86 8 8 0 01-1.39 4.35 4.36 4.36 0 01-4.49 1.33c-4.09-1.22-3.55-6.74-4.22-10a45.89 45.89 0 00-4.7-12.76 44 44 0 00-4.33-6.43z" fill="#6873c8"/><path d="M41.31 288.81c-2.45-3-5.28-5.76-7.52-8.95-1.53-2.18-2.81-4.84-2.17-7.42a6.64 6.64 0 015.26-4.63 10.07 10.07 0 017.06 1.57 21.65 21.65 0 015.34 5.08 53 53 0 0111.16 37.86 8 8 0 01-1.39 4.35 4.36 4.36 0 01-4.49 1.33c-4.09-1.22-3.55-6.74-4.22-10a45.89 45.89 0 00-4.7-12.76 44 44 0 00-4.33-6.43z" opacity=".2"/><path d="M54.81 313.92a.36.36 0 01-.29-.34c-.28-6.57-2.42-29-17.87-41.71a.36.36 0 010-.51.35.35 0 01.5 0c15.64 12.87 17.85 35.55 18.09 42.19a.37.37 0 01-.34.38z" fill="#f0f0f0"/><path d="M57.07 314.63a11 11 0 01-5 7 14.1 14.1 0 01-7.59 1.27 33.17 33.17 0 01-7.73-1.9c-1.24-.42-2.61-1-2.75-2.51a2.73 2.73 0 01.88-2.16 7.79 7.79 0 01.8-.69.8.8 0 00-.42-1.43 18.1 18.1 0 01-2.2-.27 9.71 9.71 0 01-4.61-2.08 7.58 7.58 0 01-2.13-3.16 3 3 0 01.3-3.1 3.39 3.39 0 011.71-.74q.83-.18 1.65-.3a.74.74 0 00.17-1.41l-2.33-1a4.43 4.43 0 01-1.77-1.09 3.87 3.87 0 01-.44-3.22c.28-1.45.78-2.86 1.13-4.31a9.28 9.28 0 00.15-4.41 37.28 37.28 0 0113.06.87 9.5 9.5 0 013.56 1.56 5.25 5.25 0 011.68 4.8.34.34 0 00.63.18l1.49-2.75a1.77 1.77 0 012.32-.74 10.8 10.8 0 013.4 2.68 5.9 5.9 0 011.46 4.36 37.55 37.55 0 01-1.09 6.4.6.6 0 00.93.63l.07-.06a2 2 0 011.41-.4c1.31.16 1.65 1.49 1.74 2.63a22.36 22.36 0 01-.48 5.35z" fill="#6873c8"/><path d="M57.07 314.63a11 11 0 01-5 7 14.1 14.1 0 01-7.59 1.27 33.17 33.17 0 01-7.73-1.9c-1.24-.42-2.61-1-2.75-2.51a2.73 2.73 0 01.88-2.16 7.79 7.79 0 01.8-.69.8.8 0 00-.42-1.43 18.1 18.1 0 01-2.2-.27 9.71 9.71 0 01-4.61-2.08 7.58 7.58 0 01-2.13-3.16 3 3 0 01.3-3.1 3.39 3.39 0 011.71-.74q.83-.18 1.65-.3a.74.74 0 00.17-1.41l-2.33-1a4.43 4.43 0 01-1.77-1.09 3.87 3.87 0 01-.44-3.22c.28-1.45.78-2.86 1.13-4.31a9.28 9.28 0 00.15-4.41 37.28 37.28 0 0113.06.87 9.5 9.5 0 013.56 1.56 5.25 5.25 0 011.68 4.8.34.34 0 00.63.18l1.49-2.75a1.77 1.77 0 012.32-.74 10.8 10.8 0 013.4 2.68 5.9 5.9 0 011.46 4.36 37.55 37.55 0 01-1.09 6.4.6.6 0 00.93.63l.07-.06a2 2 0 011.41-.4c1.31.16 1.65 1.49 1.74 2.63a22.36 22.36 0 01-.48 5.35z" opacity=".2"/><path d="M57.07 314.63a11 11 0 01-5 7 14.1 14.1 0 01-7.59 1.27 33.17 33.17 0 01-7.73-1.9c-1.24-.42-2.61-1-2.75-2.51a2.73 2.73 0 01.88-2.16 7.79 7.79 0 01.8-.69.8.8 0 00-.42-1.43 18.1 18.1 0 01-2.2-.27 9.71 9.71 0 01-4.61-2.08 7.58 7.58 0 01-2.13-3.16 3 3 0 01.3-3.1 3.39 3.39 0 011.71-.74q.83-.18 1.65-.3a.74.74 0 00.17-1.41l-2.33-1a4.43 4.43 0 01-1.77-1.09 3.87 3.87 0 01-.44-3.22c.28-1.45.78-2.86 1.13-4.31a9.28 9.28 0 00.15-4.41 37.28 37.28 0 0113.06.87 9.5 9.5 0 013.56 1.56 5.25 5.25 0 011.68 4.8.34.34 0 00.63.18l1.49-2.75a1.77 1.77 0 012.32-.74 10.8 10.8 0 013.4 2.68 5.9 5.9 0 011.46 4.36 37.55 37.55 0 01-1.09 6.4.6.6 0 00.93.63l.07-.06a2 2 0 011.41-.4c1.31.16 1.65 1.49 1.74 2.63a22.36 22.36 0 01-.48 5.35z" fill="#fff" opacity=".2"/><path d="M50.15 321.23a53.21 53.21 0 00-3.51-10.18.35.35 0 00-.13-.26l-.24-.54a33.11 33.11 0 013.47-11.65.36.36 0 10-.62-.35 33.55 33.55 0 00-3.42 10.83 47.76 47.76 0 00-15-18 .36.36 0 10-.41.59c7.55 5.25 12.32 12.54 15.21 18.58a21.83 21.83 0 00-12.5-1.71.35.35 0 00-.29.41.38.38 0 00.29.29h.13c.07 0 6.9-1.26 12.81 2.05a51.53 51.53 0 013.48 10.08.38.38 0 00.29.28.33.33 0 00.14 0 .36.36 0 00.3-.42z" fill="#f0f0f0"/><path d="M456.8 314.94l-15.8.46-15.84-.46c-.68 10.69 1.41 21.59 4.29 26.91a7.26 7.26 0 003.13 3.19c4.68 2.69 12.22 2.69 16.87 0a7 7 0 003.13-3.28c2.83-5.35 4.9-16.18 4.22-26.82z" fill="#fff"/><path d="M452.13 308.45c6.2 3.58 6.23 9.39.07 13s-16.19 3.58-22.39 0-6.24-9.39-.07-13 16.18-3.58 22.39 0z" fill="#ebebeb"/><path d="M449.67 309.88c4.84 2.79 4.87 7.32.06 10.12s-12.63 2.79-17.47 0-4.86-7.33-.06-10.12 12.63-2.8 17.47 0z" fill="#e0e0e0"/><path d="M449.67 309.88c4.84 2.79 4.87 7.32.06 10.12s-12.63 2.79-17.47 0-4.86-7.33-.06-10.12 12.63-2.8 17.47 0z" opacity=".15"/><path d="M467 247.37c-35.68 11.69-36 35.56-28 52.56 2 3.44 8.17 5.28 13.51-15.86l-9.37 1.21 10.92-5.54 2.84-8.48-9.11.68 11.56-4.87a171.38 171.38 0 017.65-19.7z" fill="#6873c8"/><path d="M467 247.37c-35.68 11.69-36 35.56-28 52.56 2 3.44 8.17 5.28 13.51-15.86l-9.37 1.21 10.92-5.54 2.84-8.48-9.11.68 11.56-4.87a171.38 171.38 0 017.65-19.7z" opacity=".2"/><path d="M467 247.37c-35.68 11.69-36 35.56-28 52.56 2 3.44 8.17 5.28 13.51-15.86l-9.37 1.21 10.92-5.54 2.84-8.48-9.11.68 11.56-4.87a171.38 171.38 0 017.65-19.7z" fill="#fff" opacity=".2"/><path d="M456.91 253.34c-18.82 14.28-20.52 30.66-15.2 47.75-1.88-15.09-3.91-30.27 15.2-47.75z" fill="#fff"/><path d="M406.56 271.62c35.18 4.95 39.44 27.13 34.78 44.3-1.32 3.54-6.73 6.28-15.22-12.52l8.93-.44-11.05-3.34-4.06-7.42 8.6-.89-11.58-2.61a161.38 161.38 0 00-10.4-17.08z" fill="#6873c8"/><path d="M406.56 271.62c35.18 4.95 39.44 27.13 34.78 44.3-1.32 3.54-6.73 6.28-15.22-12.52l8.93-.44-11.05-3.34-4.06-7.42 8.6-.89-11.58-2.61a161.38 161.38 0 00-10.4-17.08z" fill="#fff" opacity=".2"/><path d="M406.56 271.62c35.18 4.95 39.44 27.13 34.78 44.3-1.32 3.54-6.73 6.28-15.22-12.52l8.93-.44-11.05-3.34-4.06-7.42 8.6-.89-11.58-2.61a161.38 161.38 0 00-10.4-17.08z" opacity=".1"/><path d="M417 275.5c19.89 10.18 24.19 25.14 22.08 41.95-.79-14.33-1.42-28.84-22.08-41.95z" fill="#fff"/><path d="M477.29 279.93c-32.25.53-38.58 20-36.29 36 .79 3.34 5.36 6.41 15.11-9.58l-8-1.4 10.38-1.77L463 297l-7.65-1.76 10.65-1.07a148 148 0 0111.29-14.24z" fill="#6873c8"/><path d="M467.49 282.27c-19.07 6.94-24.62 20-24.6 35.33 2.28-12.83 4.48-25.84 24.6-35.33z" fill="#fff"/><path d="M477.29 279.93c-32.25.53-38.58 20-36.29 36 .79 3.34 5.36 6.41 15.11-9.58l-8-1.4 10.38-1.77L463 297l-7.65-1.76 10.65-1.07a148 148 0 0111.29-14.24z" fill="#fff" opacity=".2"/><path fill="#6873c8" d="M55.15 220.87l-.04-13.98-7.3-4.15.04 13.65v.31l7.3 4.17z"/><path d="M55.61 382.76l-.46-161.89-7.3-4.17.46 161.59a3 3 0 001.23 2.71l7.19 4.4a3 3 0 01-1.12-2.64z" fill="#6873c8"/><path d="M55.61 382.76l-.46-161.89-7.3-4.17.46 161.59a3 3 0 001.23 2.71l7.19 4.4a3 3 0 01-1.12-2.64z" fill="#fff" opacity=".2"/><path d="M59.94 385.23a5.19 5.19 0 01-.84.39 5.19 5.19 0 00.84-.39zm-1.43.52a1.16 1.16 0 01-.18 0 1.16 1.16 0 00.18 0zM57 385.6z" fill="#455a64"/><path d="M55.13 206.86v-8.05a9.5 9.5 0 014.3-7.46l244-140.85a3.07 3.07 0 013-.31l-7.2-4.42a3 3 0 00-3.11.26l-244 140.84a9.48 9.48 0 00-4.3 7.47v8.32l7.3 4.15z" fill="#6873c8"/><path d="M55.13 206.86v-8.05a9.5 9.5 0 014.3-7.46l244-140.85a3.07 3.07 0 013-.31l-7.2-4.42a3 3 0 00-3.11.26l-244 140.84a9.48 9.48 0 00-4.3 7.47v8.32l7.3 4.15z" fill="#fff" opacity=".3"/><path opacity=".2" d="M55.15 220.87l-.04-13.98-7.3-4.15.04 13.65v.31l7.3 4.17z"/><path fill="#fff" opacity=".2" d="M55.15 220.87l-.04-13.98-7.3-4.15.04 13.65v.31l7.3 4.17z"/><path d="M303.36 50.5c2.38-1.37 4.32-.26 4.33 2.48v8.06L55.13 206.86v-8.05a9.5 9.5 0 014.3-7.46z" fill="#6873c8"/><path d="M287 63.83c1.27-.74 2.31-.15 2.32 1.32a5.1 5.1 0 01-2.31 4c-1.27.73-2.31.14-2.31-1.33a5 5 0 012.3-3.99zm7.06-4.07c1.27-.74 2.31-.15 2.31 1.32a5.06 5.06 0 01-2.3 4c-1.28.73-2.31.14-2.32-1.32a5.07 5.07 0 012.31-4zm7.03-4.07c1.28-.73 2.32-.14 2.32 1.32a5 5 0 01-2.3 4c-1.28.74-2.31.15-2.32-1.32a5.12 5.12 0 012.3-4z" fill="#fff"/><path d="M105.93 169.55c.95-.55 1.83-.46 2.29.25l2.29 3.53c.45.7 1.32.81 2.28.26l194.9-112.53v14L55.15 220.89v-14l7.48-4.32a5.64 5.64 0 002.28-2.89l2.26-6.16a5.65 5.65 0 012.27-2.88z" fill="#e0e0e0"/><path d="M307.73 75l.46 161.89a9.54 9.54 0 01-4.31 7.46L59.94 385.23c-2.39 1.38-4.33.27-4.33-2.47l-.46-161.89z" fill="#6873c8"/><path d="M307.73 75l.46 161.89a9.54 9.54 0 01-4.31 7.46L59.94 385.23c-2.39 1.38-4.33.27-4.33-2.47l-.46-161.89z" fill="#fff" opacity=".4"/><path d="M297.74 69.66c1.69-1 3.07-.2 3.07 1.75a6.74 6.74 0 01-3.05 5.3L84 200.15c-1.69 1-3.07.2-3.08-1.75a6.75 6.75 0 013.06-5.3z" fill="#fff"/><path d="M59.19 208.13a.27.27 0 01.31 0c.17.11.15.43 0 .72L58.13 211l3.54-2c.24-.14.44 0 .44.24a1 1 0 01-.44.75l-3.54 2 1.36.64c.17.09.19.4 0 .69a.88.88 0 01-.32.34.33.33 0 01-.3.05l-2.17-1-.08-.09v-.4l.07-.18 2.17-3.54a.81.81 0 01.33-.37zm7.65-4.42a.34.34 0 01.3 0l2.17 1 .09.1v.44l-.08.17-2.16 3.58a.86.86 0 01-.3.3.27.27 0 01-.31 0c-.16-.1-.16-.42 0-.71l1.34-2.2-3.54 2c-.23.14-.43 0-.43-.25a1 1 0 01.43-.74l3.54-2-1.35-.65c-.18-.08-.19-.39 0-.69a1 1 0 01.3-.35zm7.28-4.2a1.84 1.84 0 011.46-.27l.33-.43a.79.79 0 01.23-.22.4.4 0 01.23-.05c.15 0 .22.18.2.39l-.18 1.33a1 1 0 01-.19.45.9.9 0 01-.23.21l-.11.05-1 .29a.24.24 0 01-.32-.22.81.81 0 01.19-.6l.1-.14a1.38 1.38 0 00-.66.2 3.47 3.47 0 00-1.55 2.69c0 1 .71 1.38 1.56.89a3.44 3.44 0 001.37-1.71.92.92 0 01.37-.48.42.42 0 01.21-.06c.21 0 .29.28.17.58a5.21 5.21 0 01-2.12 2.66c-1.33.77-2.42.15-2.42-1.38a5.33 5.33 0 012.36-4.18z" fill="#e0e0e0"/><path d="M59.19 208.13a.27.27 0 01.31 0c.17.11.15.43 0 .72L58.13 211l3.54-2c.24-.14.44 0 .44.24a1 1 0 01-.44.75l-3.54 2 1.36.64c.17.09.19.4 0 .69a.88.88 0 01-.32.34.33.33 0 01-.3.05l-2.17-1-.08-.09v-.4l.07-.18 2.17-3.54a.81.81 0 01.33-.37zm7.65-4.42a.34.34 0 01.3 0l2.17 1 .09.1v.44l-.08.17-2.16 3.58a.86.86 0 01-.3.3.27.27 0 01-.31 0c-.16-.1-.16-.42 0-.71l1.34-2.2-3.54 2c-.23.14-.43 0-.43-.25a1 1 0 01.43-.74l3.54-2-1.35-.65c-.18-.08-.19-.39 0-.69a1 1 0 01.3-.35zm7.28-4.2a1.84 1.84 0 011.46-.27l.33-.43a.79.79 0 01.23-.22.4.4 0 01.23-.05c.15 0 .22.18.2.39l-.18 1.33a1 1 0 01-.19.45.9.9 0 01-.23.21l-.11.05-1 .29a.24.24 0 01-.32-.22.81.81 0 01.19-.6l.1-.14a1.38 1.38 0 00-.66.2 3.47 3.47 0 00-1.55 2.69c0 1 .71 1.38 1.56.89a3.44 3.44 0 001.37-1.71.92.92 0 01.37-.48.42.42 0 01.21-.06c.21 0 .29.28.17.58a5.21 5.21 0 01-2.12 2.66c-1.33.77-2.42.15-2.42-1.38a5.33 5.33 0 012.36-4.18z" opacity=".3"/><path d="M212.43 169.74l.22 80.06a15 15 0 01-7.47 13L79.08 336a5 5 0 01-7.51-4.31l-.22-80.06a15 15 0 017.47-13l126.1-73.15a5 5 0 017.51 4.26zm48.01-32.36l.06 20.62a4 4 0 01-2 3.44l-34.92 20a1.33 1.33 0 01-2-1.14l-.05-20.59a4 4 0 012-3.45l34.92-20a1.32 1.32 0 011.99 1.12z" fill="#fff" opacity=".6"/><path fill="#6873c8" d="M237.09 153.9l10.87.94-10.83 13.46-.04-14.4z"/><path fill="#fff" d="M237.09 153.9l10.87.94-10.83 13.46-.04-14.4z" opacity=".3"/><path d="M90.71 214.37v9.58a1.85 1.85 0 01-.92 1.6l-16.24 9.31a.62.62 0 01-.93-.53v-9.57a1.85 1.85 0 01.92-1.61l16.24-9.31a.61.61 0 01.93.53z" fill="#fff" opacity=".6"/><path fill="#6873c8" d="M79.85 222.06l5.06.43-5.04 6.26-.02-6.69z"/><path fill="#fff" d="M79.85 222.06l5.06.43-5.04 6.26-.02-6.69z" opacity=".3"/><path d="M183.4 162.93l.02 5.17-14.69 8.48-.01-5.17 14.68-8.48zm28.17-16.27l.01 5.18-19.58 11.3-.01-5.17 19.58-11.31zm56.62-32.69l.01 5.18-14.69 8.48-.01-5.17 14.69-8.49zm28.17-16.26l.01 5.17-19.58 11.31-.02-5.17 19.59-11.31zm-52.94 30.57l.02 5.17-23.38 13.49-.01-5.17 23.37-13.49z" opacity=".7" fill="#fff"/><path fill="#fff" d="M290.36 121.52l.01 4.58-24.95 14.25-.02-4.58 24.96-14.25zm-6.67 11.11l.01 3.35-18.29 10.45-.01-3.36 18.29-10.44zm-6.76 8.87l.01 3.36-11.53 6.55-.01-3.36 11.53-6.55z"/><path d="M260.44 169.76l.06 20.59a4 4 0 01-2 3.45l-34.92 20a1.33 1.33 0 01-2-1.14l-.05-20.59a4 4 0 012-3.45l34.92-20a1.32 1.32 0 011.99 1.14z" fill="#fff" opacity=".6"/><path fill="#6873c8" d="M237.09 186.28l10.87.94-10.83 13.46-.04-14.4z"/><path fill="#fff" d="M237.09 186.28l10.87.94-10.83 13.46-.04-14.4z" opacity=".3"/><path fill="#fff" d="M295.67 150.95l.01 4.58-30.26 17.2-.02-4.58 30.27-17.2zm-7.42 11.43v3.36l-22.84 13.07-.01-3.36 22.85-13.07zm-11.32 11.51l.01 3.36-11.53 6.54-.01-3.35 11.53-6.55z"/><path d="M260.44 202.14l.06 20.59a4 4 0 01-2 3.45l-34.92 20a1.33 1.33 0 01-2-1.14l-.05-20.59a4 4 0 012-3.45l34.92-20a1.32 1.32 0 011.99 1.14z" fill="#fff" opacity=".6"/><path fill="#6873c8" d="M237.09 218.66l10.87.94-10.83 13.46-.04-14.4z"/><path fill="#fff" d="M237.09 218.66l10.87.94-10.83 13.46-.04-14.4z" opacity=".3"/><path fill="#fff" d="M292.38 185.15l.01 4.58-26.97 15.39-.02-4.59 26.98-15.38zm-14.14 15.42l.01 3.36-12.84 7.26-.01-3.36 12.84-7.26zm7.76.48v3.36l-20.59 11.77-.01-3.36 20.6-11.77z"/><path d="M260.44 234.52l.06 20.59a4 4 0 01-2 3.45l-34.92 20a1.33 1.33 0 01-2-1.14l-.05-20.59a4 4 0 012-3.45l34.92-20a1.32 1.32 0 011.99 1.14z" fill="#fff" opacity=".6"/><path fill="#6873c8" d="M237.09 251.05l10.87.93-10.83 13.46-.04-14.39z"/><path fill="#fff" d="M237.09 251.05l10.87.93-10.83 13.46-.04-14.39z" opacity=".3"/><path fill="#fff" d="M295.94 215.57l.01 4.59-30.53 17.34-.02-4.59 30.54-17.34zm-12.25 14.2l.01 3.36-18.29 10.44-.01-3.36 18.29-10.44zm6.68 1.08l.01 3.36-24.97 14.35-.01-3.36 24.97-14.35zm-178.68-27.62l.01 3.36-18.29 10.44-.01-3.35 18.29-10.45zm-6.76 8.88l.01 3.36-11.53 6.55-.01-3.36 11.53-6.55z"/><path d="M180.89 199.84a2.75 2.75 0 00-4.14-2.38l-69.64 40.39A8.29 8.29 0 00103 245v8.36l77.91-45.2zM103 253.4l.11 48.86a2.76 2.76 0 004.14 2.38l69.64-40.4a8.26 8.26 0 004.12-7.19l-.1-48.85z" fill="#6873c8"/><path d="M110.08 236.13l-6.05 16.67 5.39-3.12 6.05-16.68-5.39 3.13zm12.84-7.45l-6.05 16.67 5.39-3.12 6.05-16.67-5.39 3.12zm12.84-7.45l-6.05 16.68 5.39-3.13 6.05-16.67-5.39 3.12zm12.83-7.44l-6.05 16.67 5.39-3.13 6.05-16.67-5.39 3.13zm12.84-7.45l-6.05 16.67 5.39-3.12 6.05-16.68-5.39 3.13zm15.32-8.88l-2.48 1.43-6.05 16.68 5.39-3.13 5.5-15.16a2.71 2.71 0 00-2.36.18z" opacity=".5" fill="#fff"/><path fill="#fff" opacity=".9" d="M162.64 249.71l-19.39-12-19.25 34.3 10.73-6.19.07 22.84 17.17-9.96-.07-22.8 10.74-6.19z"/><path fill="#fff" d="M151.06 308.04l30.51-17.61-.01-3.87-30.51 17.62.01 3.86zm43.41-28.93l-8.63 4.98.01 3.86 8.63-4.98-.01-3.86zm-63.74 50.24l-.01-3.86-8.64 4.98.02 3.86 8.63-4.98zm15.81-22.57l-41.64 24.04.01 3.86 41.64-24.04-.01-3.86zm-47.52 31.3l-.01-3.86-27.26 15.74.01 3.86 27.26-15.74zm16.59 0l-.01-3.86-43.82 25.3.01 3.86 43.82-25.3zm21.63-16.35l.01 3.86 28.42-16.41v-3.87l-28.43 16.42z"/><path d="M427.16 154.1c-4.61-2.67-8.51-1.36-9.75 2.78a13.7 13.7 0 00-5-5.55c-3.61-2.09-6.56-.41-6.57 3.74V157l-4.85-2.8c-2.54-1.46-4.59-.29-4.6 2.62a10 10 0 004.57 7.91l41.09 23.73c2.54 1.46 4.6.29 4.6-2.62a10 10 0 00-4.57-7.91l-4.85-2.81v-3.5c.05-6.46-4.47-14.29-10.07-17.52z" fill="#e6e6e6"/><path fill="#6873c8" d="M419.4 159.83l6.14 11.24-3.71-2.14-.02 8.31-4.91-2.84.02-8.31-3.71-2.14 6.19-4.12zm2.43 18.57l-.01 3.17-4.91-2.83.01-3.18 4.91 2.84zm0 4.45l-.01 1.59-4.91-2.84.01-1.59 4.91 2.84zm0 2.65l-.01.96-4.91-2.83.01-.96 4.91 2.83z"/><path d="M419.4 159.83l6.14 11.24-3.71-2.14-.02 8.31-4.91-2.84.02-8.31-3.71-2.14 6.19-4.12zm2.43 18.57l-.01 3.17-4.91-2.83.01-3.18 4.91 2.84zm0 4.45l-.01 1.59-4.91-2.84.01-1.59 4.91 2.84zm0 2.65l-.01.96-4.91-2.83.01-.96 4.91 2.83z" opacity=".2" fill="#fff"/><path d="M367.1 76.6c-6.82-3.94-12.59-2-14.42 4.11a20.32 20.32 0 00-7.38-8.21c-5.34-3.08-9.7-.6-9.72 5.54v2.82l-7.18-4.14c-3.75-2.16-6.79-.42-6.81 3.88a14.91 14.91 0 006.76 11.71l60.83 35.12c3.74 2.16 6.8.43 6.81-3.88a14.91 14.91 0 00-6.77-11.71l-7.22-4.15v-5.19c.08-9.5-6.61-21.12-14.9-25.9z" fill="#e6e6e6"/><path fill="#6873c8" d="M355.62 85.09l9.09 16.63-5.49-3.17-.04 12.29-7.26-4.19.03-12.29-5.5-3.18 9.17-6.09zm3.6 27.47l-.01 4.71-7.27-4.2.01-4.7 7.27 4.19zm0 6.6l-.01 2.35-7.27-4.2.01-2.35 7.27 4.2zm0 3.92l-.01 1.42-7.27-4.19.01-1.42 7.27 4.19z"/><path d="M355.62 85.09l9.09 16.63-5.49-3.17-.04 12.29-7.26-4.19.03-12.29-5.5-3.18 9.17-6.09zm3.6 27.47l-.01 4.71-7.27-4.2.01-4.7 7.27 4.19zm0 6.6l-.01 2.35-7.27-4.2.01-2.35 7.27 4.2zm0 3.92l-.01 1.42-7.27-4.19.01-1.42 7.27 4.19z" opacity=".2" fill="#fff"/><path d="M114.59 78.65c7.07-4.09 13-2.09 15 4.27a21 21 0 017.64-8.52c5.55-3.2 10.06-.62 10.08 5.75v2.92l7.44-4.3c3.89-2.24 7-.43 7.06 4a15.45 15.45 0 01-7 12.14L91.7 131.35c-3.89 2.25-7 .45-7.06-4a15.44 15.44 0 017-12.15l7.45-4.3v-5.38c-.04-9.89 6.91-21.91 15.5-26.87z" fill="#e6e6e6"/><path fill="#6873c8" d="M125.75 135.29l8.98-16.42-5.42 3.13-.04-12.14-7.17 4.14.03 12.14-5.43 3.14 9.05 6.01zm3.56-27.13l-.01-4.64-7.18 4.14.02 4.65 7.17-4.15zm0-6.51l-.01-2.32-7.18 4.15.02 2.32 7.17-4.15zm0-3.87l-.01-1.41-7.18 4.15.02 1.4 7.17-4.14z"/><path d="M125.75 135.29l8.98-16.42-5.42 3.13-.04-12.14-7.17 4.14.03 12.14-5.43 3.14 9.05 6.01zm3.56-27.13l-.01-4.64-7.18 4.14.02 4.65 7.17-4.15zm0-6.51l-.01-2.32-7.18 4.15.02 2.32 7.17-4.15zm0-3.87l-.01-1.41-7.18 4.15.02 1.4 7.17-4.14z" opacity=".2" fill="#fff"/><path d="M275.16 296.72v63.68l81-46.76V250zm8.91 5.27l63.09-36.45v42.88l-63.09 36.34zm-8.91-5.27l-9-5.16v63.68l9 5.16v-63.68z" fill="#6873c8"/><path fill="#6873c8" d="M356.16 249.98l-9-5.17-81 46.75 9 5.16 81-46.74z"/><path fill="#fff" opacity=".3" d="M356.16 249.98l-9-5.17-81 46.75 9 5.16 81-46.74z"/><path fill="#6873c8" d="M338.16 303.25l9 5.17v-42.88l-9 5.2v32.51z"/><path fill="#6873c8" d="M284.07 344.76v-10.35l54.09-31.16 9 5.17-63.09 36.34z"/><path fill="#fff" opacity=".2" d="M275.16 296.72l-9-5.16v63.68l9 5.16v-63.68zm63 6.53l9 5.17v-42.88l-9 5.2v32.51z"/><path fill="#fff" opacity=".3" d="M284.07 344.76v-10.35l54.09-31.16 9 5.17-63.09 36.34z"/><path d="M358.54 235.18a3.52 3.52 0 00-1.55-1.81l-5.46-3.11a8.9 8.9 0 00-8.94 0l-80 47.44a3.48 3.48 0 00-1.54 1.82 17.62 17.62 0 00.1 14.88 4.06 4.06 0 001.46 1.55l5.46 3.12a8.93 8.93 0 008.94 0l80-47.43a3.55 3.55 0 001.44-1.57 17.62 17.62 0 00.09-14.89z" fill="#455a64"/><path d="M277 287l80-47.43a3.57 3.57 0 001.54-4.37 17.62 17.62 0 01-.1 14.88 3.55 3.55 0 01-1.44 1.57l-80 47.43a8.75 8.75 0 01-4.71 1.19v-12.1A8.75 8.75 0 00277 287z" opacity=".3"/><path d="M261 279.53a3.57 3.57 0 001.55 4.35L268 287a8.79 8.79 0 004.23 1.18v12.08a8.89 8.89 0 01-4.23-1.17l-5.43-3.09a4.06 4.06 0 01-1.46-1.55 17.62 17.62 0 01-.11-14.92z" opacity=".2"/><path d="M419.94 330a3.54 3.54 0 00-1.54-1.81l-64.22-37.08a8.93 8.93 0 00-8.94 0l-63.76 37.05a3.54 3.54 0 00-1.55 1.82c-1.84 3.37-2.45 18.19.1 23.07a4 4 0 001.46 1.55l64.22 37.08a8.93 8.93 0 008.94 0l63.75-37.05a3.55 3.55 0 001.44-1.57c2.55-4.87 1.94-19.69.1-23.06z" fill="#455a64"/><path d="M419.94 330a3.54 3.54 0 00-1.54-1.81l-64.22-37.08a8.93 8.93 0 00-8.94 0l-63.76 37.05a3.54 3.54 0 00-1.55 1.82c-1.84 3.37-2.45 18.19.1 23.07a4 4 0 001.46 1.55l64.22 37.08a8.93 8.93 0 008.94 0l63.75-37.05a3.55 3.55 0 001.44-1.57c2.55-4.87 1.94-19.69.1-23.06z" opacity=".1"/><path d="M354.65 371.41l63.75-37.05a3.54 3.54 0 001.54-4.36c1.84 3.37 2.45 18.19-.1 23.07a3.55 3.55 0 01-1.44 1.57l-63.75 37.05a9 9 0 01-4.71 1.19v-20.27a8.88 8.88 0 004.71-1.2z" opacity=".3"/><path d="M279.93 330a3.57 3.57 0 001.56 4.35l64.22 37.08a9 9 0 004.23 1.18v20.27a8.87 8.87 0 01-4.23-1.18l-64.22-37.08a4 4 0 01-1.46-1.55c-2.55-4.88-1.94-19.7-.1-23.07z" opacity=".2"/><path d="M419.94 307.52a3.54 3.54 0 00-1.54-1.81l-64.22-37.08a8.93 8.93 0 00-8.94 0l-63.76 37.07a3.56 3.56 0 00-1.55 1.83c-1.84 3.37-2.45 18.19.1 23.07a4.05 4.05 0 001.46 1.56l64.22 37.07a8.9 8.9 0 008.94 0l63.75-37a3.55 3.55 0 001.44-1.57c2.55-4.95 1.94-19.77.1-23.14z" fill="#455a64"/><path d="M419.94 307.52a3.54 3.54 0 00-1.54-1.81l-64.22-37.08a8.93 8.93 0 00-8.94 0l-63.76 37.07a3.56 3.56 0 00-1.55 1.83c-1.84 3.37-2.45 18.19.1 23.07a4.05 4.05 0 001.46 1.56l64.22 37.07a8.9 8.9 0 008.94 0l63.75-37a3.55 3.55 0 001.44-1.57c2.55-4.95 1.94-19.77.1-23.14z" opacity=".1"/><path d="M433.42 232l-60.72-35.08a3.58 3.58 0 00-1.77-.49h-.3c-5.55 0-9.9 3.36-13.12 7.24l-.14.16a3.79 3.79 0 00-.7 1.37l-17.43 64.9a8.61 8.61 0 004 9.71L404 314.86a3.69 3.69 0 002.14.49c6.95-.71 11-5 13.08-7.28a3.63 3.63 0 00.83-1.52l17.42-64.88a8.64 8.64 0 00-4.05-9.67z" fill="#455a64"/><path d="M433.42 232l-60.72-35.08a3.58 3.58 0 00-1.77-.49h-.3c-5.55 0-9.9 3.36-13.12 7.24a3.68 3.68 0 014.56-.69L422.79 238a8.66 8.66 0 013.76 4.44l10.6-6.12a8.6 8.6 0 00-3.73-4.32z" opacity=".1"/><path d="M426.55 242.47a8.67 8.67 0 01.26 5.27l-17.42 64.88a3.68 3.68 0 01-3.28 2.73c6.95-.71 11-5 13.08-7.28a3.63 3.63 0 00.83-1.52l17.42-64.88a8.64 8.64 0 00-.29-5.33z" opacity=".2"/><path d="M339.24 270.1l17.41-64.88a3.79 3.79 0 01.7-1.37l.14-.16c3.22-3.88 7.57-7.19 13.12-7.24h.3a3.45 3.45 0 011.77.49L433.42 232a8.65 8.65 0 011.22.86 8.85 8.85 0 011 1 8.48 8.48 0 011.46 2.47 8.18 8.18 0 01.38 1.28c0 .21.08.43.11.64a.07.07 0 000 .05v.61a.57.57 0 010 .13v1.23c0 .12 0 .23-.05.35s0 .23-.05.34-.09.46-.15.69L420 306.56a3.63 3.63 0 01-.83 1.52c-2 2.27-6.13 6.57-13.08 7.28a3.69 3.69 0 01-2.14-.49l-60.71-35.05a8.61 8.61 0 01-4-9.72z" opacity=".1"/><path d="M354.65 348.94l63.75-37.06a3.54 3.54 0 001.54-4.36c1.84 3.37 2.45 18.19-.1 23.07a3.55 3.55 0 01-1.44 1.57l-63.75 37a8.87 8.87 0 01-4.71 1.19v-20.22a9 9 0 004.71-1.19z" opacity=".3"/><path d="M279.93 307.52a3.56 3.56 0 001.56 4.34L345.71 349a9 9 0 004.23 1.18v20.22a8.87 8.87 0 01-4.23-1.18l-64.22-37.07a4.05 4.05 0 01-1.46-1.56c-2.55-4.88-1.94-19.7-.1-23.07z" opacity=".2"/><path d="M301.91 353.46a66.54 66.54 0 011.15 10.78l2.56-1a6.61 6.61 0 017.11 1.62l.13.13a2.57 2.57 0 003.56.16 2.55 2.55 0 00.88-1.86l.34-10.89z" fill="#ffa8a7"/><path d="M311.79 393.94c-5.31 5.68-15.09 10.64-22.2 5.8l.8 1.81c7.11 4.84 16.88-.12 22.2-5.8s1.86-9.62 6.64-14.66a17.24 17.24 0 004.13-6.14c-.21-.54-.42-1.25-.67-2.06a21.64 21.64 0 01-4.26 6.39c-4.78 5.04-1.33 8.98-6.64 14.66z" fill="#f5f5f5"/><path d="M320.08 367a10.25 10.25 0 01-1.67-3.88 2.31 2.31 0 00-1.05-1.58l-.06 1.83a2.58 2.58 0 01-4.44 1.7l-.13-.13a6.61 6.61 0 00-7.11-1.62l-2.6 1a2 2 0 00-1.29 1.91c.17 7.45-3.31 17.35-7 22.78-3.75 1.55-7 6.67-5.34 10.42l.16.37c7.11 4.84 16.89-.12 22.2-5.8s1.86-9.62 6.64-14.66a21.64 21.64 0 004.26-6.39 23.52 23.52 0 00-2.57-5.95z" fill="#6873c8"/><path d="M309.69 377.71a.91.91 0 00.83-1.61 10.35 10.35 0 00-10.2 0c-.16.58-.32 1.17-.5 1.75a10 10 0 019.87-.14zm1.31-4.03a.89.89 0 001.2-.4.91.91 0 00-.37-1.21 10.87 10.87 0 00-10.61.09c-.11.6-.24 1.21-.37 1.82 3.15-1.63 6.22-2.28 10.15-.3zm-2.75 8.04a.92.92 0 001.21-.41.9.9 0 00-.37-1.2 10.34 10.34 0 00-10-.1c-.22.63-.46 1.25-.7 1.86a9.94 9.94 0 019.86-.15zM294.77 389c-3.75 1.55-7 6.67-5.34 10.42l.16.37c7 4.77 16.59 0 22-5.55-4.52-8.82-13.87-6.63-16.82-5.24zm11.91-3.37a.91.91 0 00.84-1.61 10.37 10.37 0 00-10-.09c-.31.7-.64 1.36-1 2 3.11-1.63 6.23-2.28 10.16-.3z" fill="#fff"/><path d="M290.75 375.11a66.19 66.19 0 01-3.3 10.34l2.73.15A6.61 6.61 0 01296 390l.06.17a2.58 2.58 0 003.19 1.59 2.61 2.61 0 001.56-1.35l4.71-9.83z" fill="#ffa8a7"/><path d="M283.45 416.14c-7.16 3.05-18.11 3.65-22.65-3.65v2c4.54 7.3 15.49 6.71 22.65 3.65s5.58-8 12-10.72a17.43 17.43 0 006.26-3.95c0-.58.12-1.31.22-2.16a21.54 21.54 0 01-6.48 4.13c-6.45 2.65-4.85 7.64-12 10.7z" fill="#f5f5f5"/><path d="M301.92 394.8a10.19 10.19 0 010-4.22 2.26 2.26 0 00-.33-1.87l-.79 1.65a2.61 2.61 0 01-1.56 1.35 2.58 2.58 0 01-3.19-1.59L296 390a6.61 6.61 0 00-5.85-4.35l-2.77-.15a2 2 0 00-2 1.23c-2.85 6.88-10 14.52-15.56 18-4.06-.1-9.09 3.27-9.09 7.37v.41c4.54 7.3 15.49 6.7 22.65 3.65s5.58-8.05 12-10.73a21.54 21.54 0 006.48-4.13 23.18 23.18 0 00.06-6.5z" fill="#6873c8"/><path d="M288.07 400.44a.9.9 0 001.27.12.89.89 0 00.15-1.25 10.38 10.38 0 00-9.34-4.11c-.38.48-.77.94-1.17 1.4a10 10 0 019.09 3.84zm2.83-3.15a.91.91 0 001.41-1.14 10.91 10.91 0 00-9.75-4.21c-.34.51-.7 1-1.07 1.53 3.51-.25 6.61.41 9.41 3.82zm-5.76 6.24a.91.91 0 001.42-1.14 10.38 10.38 0 00-9.1-4.12c-.46.49-.92 1-1.39 1.42a10 10 0 019.07 3.84zm-15.25 1.18c-4.06-.1-9.09 3.27-9.09 7.37v.41c4.48 7.19 15.16 6.71 22.32 3.78-.55-9.83-9.99-11.6-13.23-11.56zm12.24 1.77a.91.91 0 001.41-1.14 10.36 10.36 0 00-9.11-4.12c-.58.51-1.14 1-1.71 1.44 3.5-.25 6.62.41 9.41 3.82z" fill="#fff"/><path d="M332.76 282.09L297 302a17.75 17.75 0 00-8.8 18.74l6.94 37.41-5.69 18.11c4.91 6.59 16.2 6.92 16.2 6.92 6.29-12.62 10.91-18 14.49-28.56s6-17.88 6-17.88l29.72-8.13a35.2 35.2 0 0025.76-30c.51-4.49.53-7.56.53-7.56z" fill="#6873c8"/><path d="M332.76 282.09L297 302a17.75 17.75 0 00-8.8 18.74l6.94 37.41-5.69 18.11c4.91 6.59 16.2 6.92 16.2 6.92 6.29-12.62 10.91-18 14.49-28.56s6-17.88 6-17.88l29.72-8.13a35.2 35.2 0 0025.76-30c.51-4.49.53-7.56.53-7.56z" opacity=".4"/><path d="M333 292.15a17 17 0 004 10.91l-25.26 15.81A18.19 18.19 0 00304 329l-8.94 29.23 8.07-32.55a14.73 14.73 0 016.56-9l23.33-14.42c-2.35-6.02-.02-10.11-.02-10.11z" opacity=".2"/><path d="M358 307.05a1.31 1.31 0 010 .48 2.16 2.16 0 01-.19.37 3.45 3.45 0 01-.32.36 3.23 3.23 0 01-.49.34l-26.19 15.23a5.67 5.67 0 01-.75.33l-.29.08-.38.1-.47.08h-.11a4.58 4.58 0 01-.64 0H328a4.49 4.49 0 01-.64 0h-.09a6 6 0 01-.61-.1h-.11a4.64 4.64 0 01-.53-.16h-.1a6.11 6.11 0 01-.58-.27l-43.21-25a3.23 3.23 0 01-.49-.34l-.13-.14a2.73 2.73 0 01-.23-.25c0-.05 0-.11-.08-.16a2 2 0 01-.13-.25v-.18a2 2 0 010-.24v1.53a2.17 2.17 0 000 .25v.17a2 2 0 00.13.25l.08.16a2.73 2.73 0 00.23.25 1.79 1.79 0 00.13.14 3.25 3.25 0 00.49.35l43.21 24.95a6.11 6.11 0 00.58.27h.1a3.24 3.24 0 00.53.16h.11a6 6 0 00.61.11h1.58l.47-.08.38-.09.29-.09a4.6 4.6 0 00.75-.33l26.19-15.23a2.64 2.64 0 00.49-.34 3.45 3.45 0 00.32-.36 1.85 1.85 0 00.19-.37 1.39 1.39 0 000-.35v-1.67z" fill="#e0e0e0"/><path d="M358 307.05a1.31 1.31 0 010 .48 2.16 2.16 0 01-.19.37 3.45 3.45 0 01-.32.36 3.23 3.23 0 01-.49.34l-26.19 15.23a5.67 5.67 0 01-.75.33l-.29.08-.38.1-.47.08h-.11a4.58 4.58 0 01-.64 0H328a4.49 4.49 0 01-.64 0h-.09a6 6 0 01-.61-.1h-.11a4.64 4.64 0 01-.53-.16h-.1a6.11 6.11 0 01-.58-.27l-43.21-25a3.23 3.23 0 01-.49-.34l-.13-.14a2.73 2.73 0 01-.23-.25c0-.05 0-.11-.08-.16a2 2 0 01-.13-.25v-.18a2 2 0 010-.24v1.53a2.17 2.17 0 000 .25v.17a2 2 0 00.13.25l.08.16a2.73 2.73 0 00.23.25 1.79 1.79 0 00.13.14 3.25 3.25 0 00.49.35l43.21 24.95a6.11 6.11 0 00.58.27h.1a3.24 3.24 0 00.53.16h.11a6 6 0 00.61.11h1.58l.47-.08.38-.09.29-.09a4.6 4.6 0 00.75-.33l26.19-15.23a2.64 2.64 0 00.49-.34 3.45 3.45 0 00.32-.36 1.85 1.85 0 00.19-.37 1.39 1.39 0 000-.35v-1.67z" opacity=".2"/><path d="M281.07 297.82a2 2 0 00.13.25c0 .05.05.11.08.16a2.73 2.73 0 00.23.25l.13.14a3.23 3.23 0 00.49.34l43.21 25a6.11 6.11 0 00.58.27h.1a4.64 4.64 0 00.53.16h.11a6 6 0 00.61.1h.09a4.49 4.49 0 00.64 0h.1a4.58 4.58 0 00.64 0h.11l.47-.08.38-.1.29-.08a5.67 5.67 0 00.75-.33l26.19-15.23a3.23 3.23 0 00.49-.34 3.45 3.45 0 00.32-.36 2.16 2.16 0 00.19-.37 1.31 1.31 0 000-.48 2 2 0 00-1.11-1.48l-43.22-24.95a5.93 5.93 0 00-5.38 0l-26.19 15.22a1.91 1.91 0 00-1.03 1.49 2 2 0 000 .24c.06.06.05.12.07.18z" fill="#e0e0e0"/><path d="M284.67 297.4l42 24.24a.68.68 0 00.17.08h.09a2.31 2.31 0 00.33.1h.79a2.27 2.27 0 00.43 0h.28l.34-.1a1 1 0 00.29-.12l13.5-7.85-43.37-25zm39.95-6.67l-7.9 4.65a.8.8 0 000 1.38l11.82 6.82a1.32 1.32 0 001.32 0l7.9-4.64a.8.8 0 000-1.38l-11.81-6.82a1.3 1.3 0 00-1.33-.01z" fill="#e0e0e0"/><path d="M284.67 297.4l42 24.24a.68.68 0 00.17.08h.09a2.31 2.31 0 00.33.1h.79a2.27 2.27 0 00.43 0h.28l.34-.1a1 1 0 00.29-.12l13.5-7.85-43.37-25zm39.95-6.67l-7.9 4.65a.8.8 0 000 1.38l11.82 6.82a1.32 1.32 0 001.32 0l7.9-4.64a.8.8 0 000-1.38l-11.81-6.82a1.3 1.3 0 00-1.33-.01z" opacity=".4"/><path d="M322.46 233.53l-1.95 31.36-20.24 17.45a8.08 8.08 0 01-3.73.59l-7.5-.62a4.21 4.21 0 00-2.52.59l-4.3 2.6a4.89 4.89 0 00-1.14 1L279 289a1.58 1.58 0 00.28 2.31l1.33.94a4.69 4.69 0 004.85.38l3.33-1.68 6.86.75v1.8l-1.86 1.59a2 2 0 00.05 3s4.59-1.36 8.75-8l24.23-10.95a14.84 14.84 0 008.71-12.82l2.15-45.82-3.35.42a13.56 13.56 0 00-11.87 12.61z" fill="#ffa8a7"/><path d="M337.66 220.49l-3.67.24a13.91 13.91 0 00-13 12.76l-1.52 18.91c5.25 6.58 18.92 3.82 18.92 3.82z" fill="#455a64"/><path d="M337.66 220.49l-3.67.24a13.91 13.91 0 00-13 12.76l-1.52 18.91c5.25 6.58 18.92 3.82 18.92 3.82z" fill="#fff" opacity=".5"/><path d="M382.65 293.9c-6.35 6.1-36.85 7.22-52.42-7.6 1.5-10.45 1-21.66 0-32.74s-7.47-30.46 4.9-32.71c16.52-3.23 27.31-3 38.35 3.25 11.78 19.63 10.16 49.01 9.17 69.8z" fill="#455a64"/><path d="M382.65 293.9c-6.35 6.1-36.85 7.22-52.42-7.6 1.5-10.45 1-21.66 0-32.74s-7.47-30.46 4.9-32.71c16.52-3.23 27.31-3 38.35 3.25 11.78 19.63 10.16 49.01 9.17 69.8z" fill="#fff" opacity=".3"/><path d="M392.61 273l-4.67-17.37-16.38 3.59 3.92 13.47-24 17-8.07 3.4a12.66 12.66 0 00-5.35 4.25l-6.59 9.12a.74.74 0 00-.07.39 1.26 1.26 0 002.2.6c1.47-1.67 2.68-3.21 4.21-4.68l-3.88 5.25a1.55 1.55 0 00.48 2.26 6.32 6.32 0 001.4.61 5.91 5.91 0 005.46-1.36l5.08-4.66 1.41-.49a21.37 21.37 0 0010.24-7.57l28.15-10.93a10.78 10.78 0 006.46-12.88z" fill="#ffa8a7"/><path d="M390.5 257.93l-.5-2.3c-5.95-27-10.69-29-18.67-32.67-7.76 6.76-6.46 18.25-6.46 18.25l6.95 20.79.21.6a24.22 24.22 0 0018.47-4.67z" fill="#455a64"/><path d="M390.5 257.93l-.5-2.3c-5.95-27-10.69-29-18.67-32.67-7.76 6.76-6.46 18.25-6.46 18.25l6.95 20.79.21.6a24.22 24.22 0 0018.47-4.67z" fill="#fff" opacity=".5"/><path d="M334.33 212.72a5.44 5.44 0 001.76 6.28 8.16 8.16 0 006.68 1.29 17.12 17.12 0 006.28-3c1.6-1.14 3.2-2.45 5.14-2.75s3.86.82 3.92 2.78a5.12 5.12 0 003.71-2.81 4 4 0 004.39 1.43 4.1 4.1 0 002.64-3.85 3.92 3.92 0 005.12-1 7.29 7.29 0 01-5-9.79c1.1-2.71 3.83-4.81 3.95-7.73a5.34 5.34 0 00-4.62-5.11 6.22 6.22 0 002.21-7 6.71 6.71 0 00-6.28-4.32 2.72 2.72 0 00-.11-3.29 4.43 4.43 0 00-3.1-1.52 13.15 13.15 0 00-3.53.3l-3.8.67c-2.74-4.25-7.69-7.06-12.52-5.6-1.46.45-2.81 1.16-4.24 1.7a8 8 0 01-4.46.58 3.86 3.86 0 01-3.08-3c-1.71 1.14-2.33 4.17-1.4 6a8.1 8.1 0 00-5.17 2.1 5.77 5.77 0 00-1.84 5 4.66 4.66 0 003.57 3.81 9.3 9.3 0 00-2.24 9.39 19 19 0 002.36 4 14.25 14.25 0 012.17 4.09 5.24 5.24 0 01-.58 4.47 3.26 3.26 0 01-4.11 1 8.32 8.32 0 004.3 5.59c2.14 1.11 5.79 1.39 7.88.29z" fill="#263238"/><path d="M357.93 208.94v11.61a5.46 5.46 0 01-1.84 4.12 15.53 15.53 0 01-11.1 3.78 4 4 0 01-2.31-.71 3.06 3.06 0 01-.74-3.16 6.08 6.08 0 01.85-1.71 5.23 5.23 0 00.91-2.94v-11z" fill="#ffa8a7"/><path d="M349.48 218.32a30.64 30.64 0 01-5.78 1.14v-10.52h14.23v2.48a11.33 11.33 0 01-1.16 2 14.1 14.1 0 01-7.29 4.9z" opacity=".2"/><path d="M343.09 190.32c1.77-.51 3.64-1.44 5.34-.75a9.8 9.8 0 012.4 1.83 8.26 8.26 0 005.3 1.88 1.81 1.81 0 01.21.92l-.22 4.85a2.31 2.31 0 00.5 1.91 1.55 1.55 0 001.75 0 4.47 4.47 0 001.27-1.36 14 14 0 012.55-3 4.65 4.65 0 013.66-1.07c2.1.43 3.34 2.81 3.19 5a6.65 6.65 0 01-3.44 5.32 6.57 6.57 0 01-6.27-.34c.32 3.82-2.29 7.41-5.57 9.39s-7.15 2.69-10.93 3.36c-2.07.36-4.25.71-6.21 0a7.71 7.71 0 01-3.76-3.33 18.33 18.33 0 01-1.83-4.76 59.66 59.66 0 01-1.5-23.15c3.63 3.12 9.83 4.38 13.56 3.3z" fill="#ffa8a7"/><path fill="#f28f8f" d="M340.19 198.74l-4.36 7.33 5.19.98-.83-8.31zm5.81 10.84l-3.94 1.92a2.59 2.59 0 003 .85 2.33 2.33 0 00.94-2.77z"/><path d="M346 209.58l-3.94 1.92a2.59 2.59 0 003 .85 2.33 2.33 0 00.94-2.77z" opacity=".3"/><path d="M343.71 212.48a2.44 2.44 0 001.37-.13 2.09 2.09 0 001.05-2.08 2.42 2.42 0 00-1.55.54 2.45 2.45 0 00-.87 1.67z" fill="#f28f8f"/><path d="M347.71 199a1.49 1.49 0 01-3 .3 1.51 1.51 0 011.34-1.64 1.49 1.49 0 011.66 1.34zm-12.51.8a1.49 1.49 0 11-3 .3 1.49 1.49 0 013-.3zm-2.04-5.8l-3.06 2.61a2.13 2.13 0 01.4-2.4 2.54 2.54 0 012.66-.21zm12.69-1.42l3.52 1.95a2.12 2.12 0 00-.87-2.27 2.54 2.54 0 00-2.65.32z" fill="#263238"/><path d="M343.36 228.13l2.42-3.1c6.83-.8 10.89-6.84 12.15-8.38a2.9 2.9 0 011.81 1.28l1.25 2c-1 6-8.62 12-11.12 13a15.56 15.56 0 00-2.25-4.56 4.42 4.42 0 01-4.26-.24z" fill="#455a64"/><path d="M343.36 228.13l2.42-3.1c6.83-.8 10.89-6.84 12.15-8.38a2.9 2.9 0 011.81 1.28l1.25 2c-1 6-8.62 12-11.12 13a15.56 15.56 0 00-2.25-4.56 4.42 4.42 0 01-4.26-.24z" fill="#fff" opacity=".5"/><path d="M346 226.12a13.66 13.66 0 011.67 2.26 4.7 4.7 0 01-2 .41 4.23 4.23 0 00.33-2.67z" opacity=".1"/><path d="M343.36 228.13c-.83-2.23.35-4.56.35-7.64v-2a8.65 8.65 0 01-3.12 3.07 15.32 15.32 0 00-2.15 5.43 23.74 23.74 0 012.64-2.87c.03 2.69 1.2 3.75 2.28 4.01z" fill="#455a64"/><path d="M343.36 228.13c-.83-2.23.35-4.56.35-7.64v-2a8.65 8.65 0 01-3.12 3.07 15.32 15.32 0 00-2.15 5.43 23.74 23.74 0 012.64-2.87c.03 2.69 1.2 3.75 2.28 4.01z" fill="#fff" opacity=".5"/><path d="M339.68 225.5a8.82 8.82 0 011.62-3.41 8.29 8.29 0 00-.23 2 17.78 17.78 0 00-1.39 1.41z" opacity=".1"/><path d="M327.78 322.37l-4.47-28.46a5.24 5.24 0 00-2.55-3.72l-43.52-25.3a1.3 1.3 0 00-1.16-.08l-1 .51.35.13a1.35 1.35 0 00-.12.78l4.48 28.45a5.21 5.21 0 002.55 3.72l43.51 25.3a1.19 1.19 0 00.29.12v.42l1-.5a1.28 1.28 0 00.64-1.37z" fill="#e0e0e0"/><path d="M327.78 322.37l-4.47-28.46a5.24 5.24 0 00-2.55-3.72l-43.52-25.3a1.3 1.3 0 00-1.16-.08l-1 .51.35.13a1.35 1.35 0 00-.12.78l4.48 28.45a5.21 5.21 0 002.55 3.72l43.51 25.3a1.19 1.19 0 00.29.12v.42l1-.5a1.28 1.28 0 00.64-1.37z" opacity=".3"/><path d="M319.88 290.63l-43.52-25.31a1.31 1.31 0 00-1.95 1.34l4.47 28.45a5.24 5.24 0 002.55 3.73l43.57 25.3a1.31 1.31 0 002-1.34l-4.48-28.45a5.21 5.21 0 00-2.64-3.72z" fill="#e0e0e0"/><path d="M298.79 291.36a9.6 9.6 0 014.32 6.22c.28 2.22-1.18 3.05-3.29 1.83a9.62 9.62 0 01-4.32-6.22c-.28-2.19 1.19-3.04 3.29-1.83z" fill="#fff"/><path d="M358.11 344.77v63.68l81-46.77V298zM367 350l63.09-36.44v42.87L367 392.81zm-8.89-5.23l-9-5.16v63.68l9 5.16v-63.68z" fill="#6873c8"/><path fill="#6873c8" d="M439.11 298.02l-9-5.16-81 46.75 9 5.16 81-46.75z"/><path fill="#fff" opacity=".3" d="M439.11 298.02l-9-5.16-81 46.75 9 5.16 81-46.75z"/><path fill="#6873c8" d="M421.11 351.3l9 5.16v-42.88l-9 5.21v32.51z"/><path fill="#6873c8" d="M367.02 392.81v-10.35l54.09-31.16 9 5.16-63.09 36.35z"/><path fill="#fff" opacity=".2" d="M358.11 344.77l-9-5.16v63.68l9 5.16v-63.68zm63 6.53l9 5.16v-42.88l-9 5.21v32.51z"/><path fill="#fff" opacity=".3" d="M367.02 392.81v-10.35l54.09-31.16 9 5.16-63.09 36.35z"/><path d="M441.49 283.23a3.56 3.56 0 00-1.55-1.81l-5.46-3.12a8.93 8.93 0 00-8.94 0l-80 47.43a3.5 3.5 0 00-1.54 1.83 17.6 17.6 0 00.1 14.87 4.05 4.05 0 001.46 1.56l5.46 3.11a8.93 8.93 0 008.94 0l80-47.44a3.54 3.54 0 001.44-1.56 17.62 17.62 0 00.09-14.87z" fill="#455a64"/><path d="M359.92 335l80-47.44a3.57 3.57 0 001.54-4.36 17.62 17.62 0 01-.1 14.88 3.54 3.54 0 01-1.44 1.56l-80 47.44a9 9 0 01-4.71 1.19v-12.05a9 9 0 004.71-1.22z" opacity=".3"/><path d="M344 327.58a3.56 3.56 0 001.55 4.35L351 335a8.9 8.9 0 004.23 1.18v12.12a8.9 8.9 0 01-4.23-1.18l-5.48-3.12a4.05 4.05 0 01-1.46-1.56 17.6 17.6 0 01-.06-14.86z" opacity=".2"/><path d="M232.04 295.74l11.54 21.1-6.97-4.03-.05 15.6-9.21-5.33.04-15.59-6.97-4.02 11.62-7.73zm4.58 34.85l-.02 5.96-9.22-5.32.02-5.96 9.22 5.32zm0 8.36l-.02 2.98-9.22-5.32.02-2.99 9.22 5.33zm0 4.98l-.02 1.8-9.22-5.33.02-1.8 9.22 5.33zm169.53-101.49l11.53 21.1-6.97-4.02-.04 15.59-9.22-5.32.05-15.59-6.97-4.02 11.62-7.74zm4.57 34.85l-.02 5.97-9.21-5.32.01-5.97 9.22 5.32zm0 8.36l-.02 2.98-9.21-5.32.01-2.98 9.22 5.32zm0 4.98l-.02 1.8-9.21-5.32.01-1.8 9.22 5.32zM286.04 180.12l11.54 21.1-6.97-4.02-.05 15.59-9.21-5.32.04-15.59-6.97-4.03 11.62-7.73zm4.58 34.85l-.02 5.96-9.22-5.32.02-5.96 9.22 5.32zm0 8.36l-.02 2.98-9.22-5.32.02-2.98 9.22 5.32zm0 4.98l-.02 1.8-9.22-5.32.02-1.8 9.22 5.32z" fill="#6873c8"/></svg>